<?xml version="1.0" encoding="UTF-8" standalone="no"?>
<!-- Created with Inkscape (http://www.inkscape.org/) -->

<svg
   width="48"
   height="48"
   viewBox="0 0 12.7 12.7"
   version="1.1"
   id="svg1"
   inkscape:version="1.4.2 (2aeb623e1d, 2025-05-12)"
   sodipodi:docname="icon_square_v2.svg"
   inkscape:export-filename="../940eb075/192.png"
   inkscape:export-xdpi="384"
   inkscape:export-ydpi="384"
   xmlns:inkscape="http://www.inkscape.org/namespaces/inkscape"
   xmlns:sodipodi="http://sodipodi.sourceforge.net/DTD/sodipodi-0.dtd"
   xmlns="http://www.w3.org/2000/svg"
   xmlns:svg="http://www.w3.org/2000/svg">
  <sodipodi:namedview
     id="namedview1"
     pagecolor="#ffffff"
     bordercolor="#666666"
     borderopacity="1.0"
     inkscape:showpageshadow="2"
     inkscape:pageopacity="0.0"
     inkscape:pagecheckerboard="0"
     inkscape:deskcolor="#d1d1d1"
     inkscape:document-units="mm"
     inkscape:zoom="16"
     inkscape:cx="2.84375"
     inkscape:cy="25.03125"
     inkscape:window-width="2526"
     inkscape:window-height="1403"
     inkscape:window-x="0"
     inkscape:window-y="0"
     inkscape:window-maximized="1"
     inkscape:current-layer="layer1">
    <inkscape:page
       x="0"
       y="0"
       width="12.7"
       height="12.7"
       id="page2"
       margin="0"
       bleed="0" />
  </sodipodi:namedview>
  <defs
     id="defs1" />
  <g
     inkscape:label="Layer 1"
     inkscape:groupmode="layer"
     id="layer1">
    <path
       id="path33"
       d="m 8.7467529,-0.03875732 c -0.093741,-0.0046858 -0.1891722,-0.0031581 -0.326595,0.0031006 l 5.167e-4,0.0015503 v 0.0010335 C 8.1240054,-0.0201693 8.0699125,-0.01050055 7.8780721,0.05167643 7.6803161,0.11596482 7.399814,0.26513745 7.3664754,0.32401123 c -0.0036,0.00686 -0.00755,0.0116103 -0.010335,0.0134359 -2.198e-4,1.17e-4 -0.00134,4.3494e-4 -0.00155,5.1677e-4 H 7.3540731 7.3535563 7.3530396 V 0.3374471 H 7.3525228 L 7.352006,0.33693034 V 0.33641357 L 7.3514893,0.33589681 7.3509725,0.33538005 V 0.33486328 0.33434652 0.33382975 0.33331299 H 7.3504557 V 0.33279622 H 7.349939 7.3494222 7.3489054 l -5.167e-4,5.1677e-4 h -5.168e-4 c -0.021387,0.007519 -0.143708,0.14805769 -0.1979207,0.22996012 -0.027042,0.0407971 -0.060643,0.087186 -0.074414,0.1028361 -0.012808,0.0152872 -0.023391,0.0332084 -0.024288,0.0413411 -8.7e-6,2.4989e-4 -1.31e-5,8.0569e-4 0,0.001034 4.25e-4,0.006609 -0.031747,0.0940602 -0.071313,0.19275309 -0.039567,0.0986934 -0.077884,0.203722 -0.085266,0.2335775 -0.00733,0.029899 -0.035802,0.1083494 -0.063562,0.1746663 -0.087891,0.2100835 -0.1006923,0.2899754 -0.064079,0.3963582 0.037802,0.1099005 0.081818,0.1644238 0.2676839,0.3286621 0.1341884,0.1184489 0.2077646,0.1752185 0.412378,0.3188436 0.055188,0.03865 0.1237001,0.087975 0.1524454,0.1095541 0.028693,0.021588 0.060686,0.03883 0.070797,0.038241 0.010198,-5.894e-4 0.026942,0.011372 0.037207,0.025838 0.010137,0.014943 0.051036,0.043708 0.090434,0.063562 0.077486,0.039117 0.093448,0.077868 0.041858,0.1012858 C 7.8219005,2.699506 7.7178536,2.69188 7.6088379,2.676322 7.3605957,2.6387391 7.2922032,2.6312736 7.1313477,2.6220622 6.9621054,2.6120171 6.5265871,2.6371443 6.4600708,2.661853 6.3639857,2.6960518 6.2791937,2.8029533 6.2233927,2.960026 6.1935697,3.04419 6.1381895,3.1963069 6.1004028,3.2985067 c -0.091429,0.2473579 -0.093548,0.2984449 -0.021187,0.4330485 0.052041,0.096891 0.1772872,0.2427461 0.2651001,0.309025 0.016232,0.012338 0.046252,0.035692 0.067179,0.052193 0.020905,0.016504 0.083049,0.061145 0.137976,0.098702 0.05494,0.037782 0.1053448,0.073595 0.1116211,0.080099 0.00637,0.00629 0.1264409,0.088429 0.2671672,0.181901 0.3434828,0.22792 0.3555777,0.2370053 0.3576009,0.267684 0.00272,0.040829 -0.1278453,0.040349 -0.4170288,-0.00103 -0.2391112,-0.034328 -0.2940244,-0.041502 -0.4738729,-0.060461 -0.03554,-0.00458 -0.1940431,2.062e-4 -0.3524333,0.00723 -0.3071682,0.016149 -0.3965806,0.042969 -0.4728393,0.1369425 -0.037473,0.046505 -0.2085471,0.4843524 -0.2645834,0.6764445 -0.03513,0.1203668 0.00482,0.2778463 0.096635,0.3803386 0.1327023,0.1480044 0.3470364,0.3222483 0.6030639,0.4904093 0.096097,0.063068 0.1932619,0.1312189 0.2154908,0.151412 0.020874,0.01955 0.044595,0.034265 0.05426,0.035657 2.914e-4,1.6e-5 7.74e-4,1.51e-5 0.00103,0 h 5.168e-4 l 5.168e-4,5.168e-4 c 0.010047,0.00111 0.049586,0.025846 0.089917,0.056327 0.040665,0.030898 0.058814,0.046171 0.059945,0.057361 1.54e-5,9.174e-4 -3e-4,0.00274 -5.167e-4,0.00362 -0.00224,0.0067 -0.011131,0.012993 -0.025321,0.021704 -0.021246,0.013676 -0.04486,0.018878 -0.053744,0.014469 -2.643e-4,-1.703e-4 -8.021e-4,-3.229e-4 -0.00103,-5.168e-4 l -5.168e-4,-5.167e-4 c -0.0093,-0.00602 -0.050849,-0.012193 -0.094051,-0.013953 -0.044597,-0.00179 -0.1392466,-0.0094 -0.2103231,-0.018087 C 5.9698711,6.6498988 5.8876097,6.6418674 5.8580404,6.639388 5.8284591,6.6367077 5.7272861,6.6270012 5.6327311,6.6192342 5.4136616,6.5990181 5.1330226,6.6163977 5.0312174,6.656958 4.8525614,6.7276638 4.8307728,6.7591831 4.6891195,7.1509847 4.5432276,7.5544935 4.539415,7.6019626 4.6446777,7.7623169 c 0.059147,0.090043 0.315095,0.3179274 0.5028117,0.4475179 0.070695,0.048821 0.1453929,0.1024 0.1658814,0.1193726 0.020455,0.016535 0.074265,0.050764 0.1193725,0.074931 0.043687,0.023634 0.080402,0.051697 0.083199,0.063045 v 5.168e-4 c 6.258e-4,0.011011 0.013369,0.019487 0.028422,0.018604 0.029544,-0.00172 0.1501085,0.1114935 0.1519287,0.142627 2.905e-4,0.00489 0.00107,0.00953 5.168e-4,0.012402 V 8.64185 l -5.168e-4,5.167e-4 v 5.168e-4 l -5.167e-4,5.168e-4 -5.168e-4,5.167e-4 -5.168e-4,5.168e-4 c -0.010182,0.00579 -0.054407,-0.00109 -0.225826,-0.024288 C 5.3516904,8.6046198 5.1784544,8.5861353 5.0839274,8.5788045 4.989377,8.5710447 4.873334,8.56232 4.826062,8.5586507 4.6486479,8.544863 4.3847106,8.5715941 4.2715739,8.614978 4.1455339,8.662892 4.1258255,8.6902288 4.030245,8.948291 3.999074,9.032536 3.9426341,9.1834022 3.905188,9.2841878 3.822092,9.5077286 3.8301556,9.597386 3.9454956,9.7466919 c 0.096352,0.1246493 0.3622242,0.3600331 0.5079793,0.4490681 0.1062015,0.06492 0.3104391,0.202925 0.3317627,0.224276 0.012465,0.01257 0.052286,0.03968 0.088367,0.05994 0.057841,0.03252 0.1751607,0.113984 0.3431315,0.238746 0.064225,0.04765 0.2522122,0.214248 0.287321,0.254248 0.04832,0.05498 0.073123,0.10893 0.069246,0.151928 -0.011886,0.130307 -0.016079,0.157075 -0.028939,0.180868 -0.00787,0.01369 -0.016267,0.05704 -0.018604,0.09508 -0.00242,0.03802 -0.044038,0.16264 -0.092501,0.276986 -0.066512,0.156981 -0.1175831,0.240026 -0.2087728,0.338481 -0.065408,0.07054 -0.1280717,0.129378 -0.1400431,0.131775 -0.010595,6.17e-4 -0.072154,0.03016 -0.1369426,0.06563 -0.1052614,0.05757 -0.1462698,0.067 -0.3839559,0.0863 -0.1463914,0.0108 -0.3048959,0.01341 -0.3524332,0.0052 -0.047553,-0.0085 -0.1099497,-0.01999 -0.1384929,-0.02429 -0.028581,-0.005 -0.071677,-0.01831 -0.095601,-0.02842 -0.024027,-0.01196 -0.073413,-0.02276 -0.1100708,-0.02636 -0.036707,-0.0045 -0.1308838,-0.03191 -0.2092895,-0.06253 -0.1303316,-0.05115 -0.4162555,-0.133604 -0.576709,-0.165882 -0.035697,-0.0068 -0.079747,-0.0173 -0.097669,-0.02222 -0.018044,-0.0056 -0.1570254,-0.0019 -0.3095418,0.0047 -0.265355,0.01413 -0.2824396,0.01768 -0.3963582,0.08423 -0.2028472,0.118209 -0.2881132,0.232468 -0.322461,0.432532 -0.018496,0.107663 -0.016371,0.120622 0.022738,0.155546 v -5.17e-4 c 0.023481,0.02077 0.051832,0.03732 0.063562,0.03669 0.037422,-0.0022 0.1018678,-0.09012 0.099219,-0.135392 -0.00714,-0.122104 0.14542,-0.312663 0.2888713,-0.360702 0.1633489,-0.05476 0.5484479,-0.04507 0.6960815,0.01602 0.030078,0.01147 0.092639,0.02755 0.1384929,0.03307 0.045896,0.0061 0.1534024,0.03795 0.2392618,0.07235 0.3757138,0.150862 0.746055,0.210589 1.0929566,0.175183 0.2941617,-0.03053 0.2912439,-0.02844 0.5405355,-0.164848 0.1085243,-0.05907 0.3632457,-0.321517 0.4123779,-0.42478 0.099942,-0.210135 0.1265423,-0.277207 0.135909,-0.343648 0.022223,-0.157291 0.073069,-0.325133 0.1844849,-0.609265 0.071057,-0.18119 0.1158261,-0.33064 0.1219564,-0.407727 C 6.0035416,10.387027 5.864893,10.195587 5.5872559,9.9792358 5.4959644,9.9080813 5.407844,9.8383865 5.3914022,9.8247233 c -0.016568,-0.014535 -0.040148,-0.024508 -0.05271,-0.023771 -0.012569,7.624e-4 -0.023154,-0.00503 -0.023771,-0.013953 v -5.168e-4 c -0.00498,-0.01205 -0.07921,-0.065497 -0.1679484,-0.1224731 -0.088739,-0.056976 -0.1619564,-0.111635 -0.1669149,-0.1235067 -5.115e-4,-0.0089 -0.013294,-0.017393 -0.027905,-0.016536 -0.034852,0.00115 -0.1270242,-0.067329 -0.1286743,-0.095601 -0.00293,-0.050118 0.012257,-0.050955 0.3307292,-0.012919 0.035555,0.00454 0.098635,0.012228 0.1400431,0.01602 0.041412,0.00411 0.118658,0.015189 0.1715657,0.022738 0.052911,0.00796 0.1641279,0.016429 0.2470134,0.01757 0.082921,0.00173 0.1936738,0.00174 0.2464966,0.0031 0.1506421,0.00232 0.3411406,-0.048025 0.4371826,-0.1167888 0.048073,-0.034509 0.086614,-0.074828 0.085783,-0.0894 -8.834e-4,-0.015463 0.026863,-0.097969 0.061495,-0.1855184 0.034633,-0.087546 0.088955,-0.2254141 0.1209229,-0.306958 C 6.7477165,8.5644166 6.7339137,8.459082 6.6006307,8.299235 6.575357,8.2689451 6.5575276,8.242162 6.556189,8.2341227 c 1.12e-5,-1.125e-4 3.5e-6,-5.948e-4 0,-0.00103 v -5.168e-4 l 5.167e-4,-5.167e-4 h 5.168e-4 5.168e-4 V 8.2315389 8.2310221 8.2305054 C 6.5536893,8.2218454 6.5100913,8.1827383 6.4528361,8.1364543 6.388554,8.0843915 6.315478,8.0236088 6.2905721,8.0015788 6.2656861,7.9795461 6.1651103,7.9084854 6.0673299,7.8439657 5.9695491,7.7794419 5.8723069,7.7128917 5.8513224,7.6961711 5.7773598,7.6373472 5.7460027,7.616315 5.7324666,7.6171061 5.7081032,7.6185352 5.5748639,7.4904337 5.5712362,7.4646606 v -5.167e-4 -5.168e-4 -5.167e-4 -5.168e-4 h 5.167e-4 v -5.168e-4 -5.167e-4 c 0.010832,-0.011729 0.1128234,-0.00614 0.5932455,0.03514 0.041413,0.00423 0.1234899,0.014811 0.1824178,0.023771 0.058981,0.00984 0.2132329,0.011976 0.3426147,0.00465 0.212953,-0.01201 0.2451787,-0.018386 0.3415812,-0.075448 C 7.1522424,7.3785875 7.1980623,7.3214133 7.2455526,7.1840576 7.2637436,7.1313726 7.30685,7.0142244 7.341154,6.9241252 7.418658,6.7201862 7.4271519,6.6784955 7.4181519,6.5623901 7.4072931,6.4221035 7.3337596,6.3209762 7.1018921,6.1272746 7.0283704,6.0657483 6.9444332,5.9953609 6.9153402,5.970695 6.8862342,5.945811 6.8529669,5.9266118 6.8414429,5.9272868 c -0.011496,6.726e-4 -0.027415,-0.014325 -0.03514,-0.030489 -0.00767,-0.017277 -0.023076,-0.030619 -0.034106,-0.029972 -0.01101,6.257e-4 -0.032122,-0.00721 -0.047026,-0.019637 C 6.7103959,5.8369688 6.6628159,5.8011318 6.619751,5.7686408 6.578031,5.7371658 6.536899,5.7110598 6.526733,5.7097298 h -5.168e-4 -5.167e-4 c -0.00977,-0.0012 -0.04488,-0.024951 -0.079582,-0.05426 -0.035797,-0.030255 -0.083997,-0.064753 -0.1069703,-0.076481 -0.022964,-0.011939 -0.045521,-0.036836 -0.050643,-0.05581 -0.012011,-0.046491 0.060482,-0.048656 0.3033407,-0.00878 0.4020223,0.064466 0.8732493,0.075034 1.0604004,0.023771 C 7.7493013,5.5125588 7.795947,5.4838118 7.8594678,5.4151799 7.9045658,5.3664589 7.9410108,5.313256 7.9400828,5.2973577 7.9391891,5.2818927 7.9722028,5.1809892 8.0139798,5.0746323 8.0557364,4.9680425 8.1101846,4.8290608 8.134904,4.7656006 8.22489,4.5349004 8.1656976,4.3924152 7.8729045,4.1346313 7.6784474,3.9634264 7.6577573,3.9469741 7.4703451,3.8209554 7.4143454,3.7832404 7.3629827,3.7466926 7.3566569,3.7393066 7.3502996,3.7330184 7.3158274,3.7094429 7.279659,3.6891805 7.1999324,3.6446528 7.1910769,3.6385045 7.0812215,3.5527547 6.9909479,3.4824802 6.984595,3.4288907 7.0683024,3.4437174 c 0.026027,0.00512 0.07621,0.01108 0.1116211,0.013436 0.03541,0.00236 0.0936,0.010057 0.1291911,0.015503 0.035668,0.00678 0.084425,0.012595 0.1080037,0.013436 0.023687,0.00304 0.1059676,0.0096 0.1829346,0.018603 C 7.9457624,3.5409846 8.3011786,3.5315 8.4475464,3.481958 8.5661096,3.442015 8.6426141,3.3648427 8.6904256,3.2375285 8.7122589,3.1793104 8.7638168,3.0426821 8.8051473,2.9336711 8.9027903,2.6760242 8.90823,2.6252146 8.8557902,2.4871867 8.8240079,2.4035186 8.7753013,2.337749 8.6682048,2.2350057 8.5884771,2.1585708 8.5225103,2.0900623 8.5219604,2.0825602 c -4.56e-5,-2.409e-4 1.062e-4,-0.00111 0,-0.00155 l -5.167e-4,-5.17e-4 C 8.5160609,2.0717764 8.488507,2.0577812 8.4558146,2.0463867 8.4225894,2.0354534 8.3936347,2.0187985 8.389152,2.01073 V 2.0102132 2.0096965 C 8.3887157,2.0030595 8.2907638,1.9297143 8.172111,1.848466 8.0534512,1.7672166 7.9382208,1.685343 7.9157959,1.6660482 7.8934341,1.6474155 7.8674276,1.6313886 7.8579183,1.6319417 7.8484715,1.6324809 7.8105931,1.6074626 7.7742025,1.5761312 7.7378,1.5448012 7.691267,1.5110572 7.6703328,1.5012004 7.6023434,1.4690576 7.2904386,1.2077345 7.2228149,1.1260295 7.1385362,1.0241626 7.1360323,0.96926853 7.2114461,0.81752116 7.3264139,0.58622505 7.5695539,0.3526216 7.764384,0.28628743 c 0.046113,-0.0159807 0.126088,-0.0462843 0.1777669,-0.0676961 0.1308148,-0.0541727 0.6584928,-0.0919414 0.8743652,-0.0620117 0.088439,0.0125582 0.2335326,0.0318394 0.322461,0.043925 0.088934,0.0125306 0.1809187,0.0246386 0.2046386,0.0279053 0.02368,0.003041 0.072447,0.0159827 0.1085205,0.0289388 0.036053,0.0134061 0.075008,0.0226123 0.086816,0.0232544 0.048222,0.001599 0.2897411,0.0666353 0.4020427,0.10748698 0.2058571,0.0748227 0.2125621,0.0746882 0.2444301,-0.0160197 0.01558,-0.0441112 0.02815,-0.0833696 0.0279,-0.0873332 v -5.1676e-4 h -5.17e-4 v -5.1677e-4 l -5.16e-4,-5.1676e-4 C 10.200016,0.26834875 10.010257,0.20185309 9.9802694,0.20360514 9.9637131,0.2045682 9.9191317,0.19129582 9.8815674,0.17466634 9.8212631,0.14782198 9.7438507,0.12765244 9.4516195,0.06097819 9.4099562,0.05233232 9.2350786,0.02222042 9.0630127,-0.00361735 8.9326787,-0.02314216 8.840494,-0.03407149 8.7467529,-0.03875732 Z m 3.9491131,0.05012614 -1.99006,0.0051676 -1.0206091,2.98017988 c 0.043488,0.037179 0.1218492,0.1007495 0.1751831,0.1410767 0.05365,0.040772 0.140584,0.108375 0.192753,0.1503784 0.05217,0.041799 0.09763,0.075964 0.101286,0.075964 0.0037,0 0.04329,0.031341 0.08785,0.069247 0.04177,0.035727 0.08115,0.065191 0.09043,0.06873 h 5.16e-4 5.17e-4 v 5.168e-4 h 5.17e-4 c 0.0083,0.00287 0.0393,0.027102 0.07131,0.056327 0.0341,0.031144 0.07398,0.063432 0.08888,0.07183 0.0149,0.00818 0.0628,0.045177 0.106453,0.081649 0.04092,0.034383 0.07951,0.063242 0.08837,0.066663 h 5.17e-4 5.17e-4 5.16e-4 l 5.17e-4,5.168e-4 c 0.0088,0.00347 0.0465,0.032219 0.08733,0.067179 0.04354,0.037291 0.123083,0.1007123 0.176734,0.1410767 0.05365,0.040365 0.140065,0.1076528 0.192236,0.1498616 0.05054,0.040691 0.09754,0.07441 0.105937,0.076481 h 5.16e-4 5.17e-4 l 5.17e-4,5.167e-4 c 0.0094,0.00358 0.04591,0.033193 0.08475,0.06873 0.04014,0.036918 0.07831,0.067395 0.0863,0.069246 h 5.17e-4 5.16e-4 c 2.46e-4,4.9e-5 0.0013,4.212e-4 0.0016,5.168e-4 0.01041,0.00423 0.04328,0.028663 0.077,0.057878 0.03714,0.031964 0.09653,0.080021 0.132291,0.1064534 0.11922,0.088308 0.183877,0.1382517 0.26355,0.2046387 0.04208,0.035134 0.08162,0.063864 0.0894,0.065629 h 5.17e-4 5.17e-4 c 0.0086,0.0029 0.03983,0.027619 0.07183,0.056844 0.0341,0.031144 0.07398,0.063637 0.08888,0.07183 0.0149,0.00818 0.0626,0.044457 0.105936,0.081132 0.042,0.035529 0.08155,0.065378 0.0894,0.067179 h 5.17e-4 5.17e-4 c 2.38e-4,5.63e-5 0.0013,4.07e-4 0.0015,5.168e-4 0.01046,0.00486 0.04524,0.033022 0.08165,0.066146 0.04009,0.036472 0.09215,0.077533 0.115755,0.091467 0.02361,0.014342 0.06654,0.046636 0.09508,0.072864 l 0.05168,0.048059 v 0.4387329 l -5.16e-4,0.4392496 -0.07855,0.062012 c -0.04302,0.034222 -0.12694,0.09983 -0.186552,0.1457275 -0.05961,0.045895 -0.144942,0.1124553 -0.189652,0.1483114 -0.04471,0.035858 -0.09309,0.071799 -0.108004,0.079582 -0.0149,0.00823 -0.0553,0.039451 -0.0894,0.070797 -0.03197,0.029201 -0.06328,0.053916 -0.07183,0.056844 h -5.17e-4 -5.17e-4 -5.17e-4 l -5.16e-4,5.167e-4 c -0.0089,0.003 -0.04234,0.02805 -0.07752,0.058394 -0.03753,0.03217 -0.09267,0.075531 -0.122473,0.096635 -0.07992,0.056762 -0.207631,0.1558388 -0.285254,0.2216919 -0.03518,0.029779 -0.06879,0.054881 -0.07752,0.057878 l -5.16e-4,5.168e-4 h -5.17e-4 -5.17e-4 -5.17e-4 c -0.0082,0.00262 -0.03684,0.024518 -0.06615,0.050643 -0.03126,0.027866 -0.08619,0.071437 -0.121956,0.096635 -0.05839,0.041183 -0.137164,0.1012444 -0.379305,0.2909383 -0.04173,0.032576 -0.114572,0.088263 -0.162264,0.1235067 -0.04769,0.035244 -0.107713,0.083924 -0.132808,0.107487 -0.02355,0.022112 -0.04844,0.040237 -0.05633,0.042375 h -5.16e-4 c -0.0079,0.00186 -0.04831,0.032529 -0.09147,0.069246 -0.04177,0.035727 -0.08171,0.065685 -0.09147,0.069246 h -5.17e-4 -5.17e-4 -5.16e-4 c -2.43e-4,4.94e-5 -0.0013,4.203e-4 -0.0016,5.168e-4 -0.01032,0.00427 -0.04306,0.028999 -0.077,0.058394 -0.03737,0.032377 -0.09704,0.080222 -0.132809,0.1064535 -0.089531,0.065975 -0.2169215,0.1642295 -0.258382,0.199471 -0.04661,0.039547 -0.1832328,0.1439094 -0.2563152,0.1953369 -0.032789,0.023155 -0.081692,0.061187 -0.1085205,0.084749 -0.022678,0.019975 -0.039492,0.029124 -0.047542,0.027905 H 9.4169096 L 9.4163928,8.743135 9.415876,8.7426182 c -5.767e-4,-5.024e-4 -0.00122,-0.00117 -0.00155,-0.00155 -7.645e-4,-0.00119 -0.00126,-0.00278 -0.00155,-0.00465 C 9.4109094,8.7241266 9.3929483,8.6338492 9.3730713,8.5359131 9.2544727,7.951901 9.2485366,7.9126953 9.2810872,7.9126953 h 5.168e-4 5.168e-4 c 0.0085,-0.00308 0.041933,-0.029312 0.076998,-0.060461 0.037363,-0.033193 0.092152,-0.076762 0.1219563,-0.096635 0.069086,-0.046082 0.1756166,-0.1255911 0.2656169,-0.1979208 0.065001,-0.05225 0.1645763,-0.127835 0.314193,-0.2387451 0.03279,-0.024385 0.111044,-0.083836 0.173632,-0.1328084 0.06259,-0.048968 0.131469,-0.1014098 0.152963,-0.1157552 0.02149,-0.014339 0.07134,-0.05311 0.111104,-0.0863 0.03731,-0.031149 0.07289,-0.057385 0.08113,-0.060461 h 5.17e-4 c 0.005,0 0.0458,-0.031334 0.09095,-0.069246 0.04376,-0.036918 0.08499,-0.067396 0.09302,-0.069246 h 5.17e-4 5.16e-4 5.17e-4 c 0.009,-0.00298 0.04285,-0.027914 0.07803,-0.057878 0.0634,-0.053887 0.100982,-0.082565 0.257865,-0.1979208 0.03278,-0.024186 0.09637,-0.073489 0.141077,-0.109554 0.11842,-0.095477 0.215691,-0.1691543 0.2651,-0.2005046 0.02384,-0.014339 0.07546,-0.053713 0.114205,-0.085266 0.07829,-0.063932 0.178616,-0.1405999 0.274918,-0.2108398 0.09491,-0.069254 0.16389,-0.128293 0.168982,-0.1436605 V 5.7789763 5.7784596 5.7779428 5.777426 5.7769093 C 12.062628,5.7625673 12.008968,5.7180123 11.898497,5.6378997 11.856767,5.6075757 11.768734,5.5408117 11.70316,5.4895883 11.63758,5.4381583 11.56641,5.3840413 11.54503,5.369699 11.52365,5.355357 11.47983,5.321812 11.44736,5.294768 11.41489,5.267721 11.36869,5.2322 11.345041,5.21622 11.292871,5.181183 11.1139,5.0450663 11.046351,4.9888437 c -0.02698,-0.02254 -0.06854,-0.053673 -0.09198,-0.069246 -0.05335,-0.035652 -0.158719,-0.1167295 -0.2651,-0.2036052 -0.04357,-0.035529 -0.08374,-0.064849 -0.09095,-0.066663 h -5.16e-4 -5.17e-4 l -5.17e-4,-5.168e-4 c -0.0084,-0.00298 -0.04281,-0.027718 -0.07958,-0.057878 C 10.477967,4.5589712 10.416532,4.510911 10.380762,4.4844808 10.345002,4.4578448 10.262367,4.3947361 10.196794,4.3439209 10.131214,4.2931089 10.052967,4.2349161 10.023161,4.2152466 9.9933501,4.1947576 9.9422552,4.1569177 9.9094727,4.1294637 9.8203027,4.0544707 9.6666869,3.9370232 9.6583252,3.9372274 c -0.00411,8.2e-5 -0.044756,-0.031341 -0.089917,-0.069246 -0.045168,-0.038109 -0.085603,-0.06873 -0.089917,-0.06873 h -5.168e-4 l -5.167e-4,-5.168e-4 c -0.00745,-0.00176 -0.028593,-0.016194 -0.054777,-0.03669 l -3.0685466,8.9591424 6.3432819,0.0078 z M 3.2747355,2.7946615 c -0.00858,0.00347 -0.042658,0.030714 -0.082165,0.064595 -0.043739,0.037317 -0.084423,0.067888 -0.092501,0.069763 h -5.168e-4 -5.168e-4 c -0.00806,0.00181 -0.04743,0.031771 -0.0894,0.067696 C 2.9663134,3.0338023 2.8870701,3.0972249 2.8334188,3.137793 2.7797648,3.178565 2.692835,3.246168 2.6406657,3.2881714 c -0.052166,0.041799 -0.097625,0.075964 -0.1012858,0.075964 -0.00367,0 -0.04329,0.031341 -0.08785,0.069247 -0.043164,0.036918 -0.083417,0.066879 -0.09095,0.06873 h -5.167e-4 v 5.168e-4 c -0.00703,0.00153 -0.038795,0.026159 -0.07183,0.056327 -0.034102,0.031144 -0.073982,0.063432 -0.088883,0.07183 -0.014899,0.00818 -0.062802,0.045177 -0.1064535,0.081649 -0.040927,0.034383 -0.079507,0.063242 -0.088367,0.066663 H 2.004012 2.0034953 c -0.00708,0.00181 -0.046179,0.03157 -0.088367,0.067696 -0.043541,0.037291 -0.1230821,0.1007123 -0.1767334,0.1410767 -0.053654,0.040365 -0.1400661,0.1076528 -0.1922363,0.1498616 -0.050536,0.040691 -0.097536,0.07441 -0.1059367,0.076481 h -5.168e-4 c -0.00781,0.00187 -0.045646,0.032525 -0.085783,0.069246 -0.040137,0.036918 -0.078308,0.067395 -0.0863,0.069246 h -5.168e-4 -5.167e-4 c -0.00784,0.00157 -0.042588,0.027233 -0.078548,0.058394 -0.037137,0.031964 -0.096526,0.080021 -0.1322917,0.1064534 -0.11921961,0.088308 -0.1838764,0.1382517 -0.26354979,0.2046387 -0.0420869,0.035134 -0.0816217,0.063864 -0.0894002,0.065629 h -5.1677e-4 c -0.007358,0.00153 -0.0393114,0.026676 -0.072347,0.056844 -0.0341013,0.031144 -0.0739806,0.063637 -0.0888835,0.07183 -0.0148985,0.00818 -0.0625972,0.044457 -0.10593669,0.081132 -0.0420021,0.035529 -0.0815506,0.065378 -0.0894002,0.067179 H 0.34519857 0.3446818 c -0.00766,0.0018 -0.0443581,0.03133 -0.0831991,0.066663 -0.0400939,0.036472 -0.0921468,0.077533 -0.11575521,0.091467 -0.023612,0.014342 -0.06654484,0.046636 -0.09508464,0.072864 l -0.05167643,0.048059 v 0.4387329 l 5.1676568e-4,0.4392496 0.0785481743,0.062012 c 0.0430159,0.034222 0.12693947,0.09983 0.18655192,0.1457275 0.0596116,0.045895 0.14494295,0.1124553 0.18965251,0.1483114 0.0447131,0.035858 0.0930921,0.071799 0.10800374,0.079582 0.0148985,0.00823 0.0552947,0.039451 0.0894002,0.070797 0.03197,0.029201 0.0632743,0.053916 0.0718302,0.056844 h 5.1677e-4 5.1676e-4 5.1677e-4 l 5.1676e-4,5.167e-4 c 0.008869,0.003 0.0423379,0.02805 0.0775147,0.058394 0.0375306,0.03217 0.0926717,0.075531 0.12247314,0.096635 0.0799164,0.056762 0.20763117,0.1558388 0.28525387,0.2216919 0.036357,0.030771 0.070731,0.056826 0.078031,0.058394 h 5.168e-4 5.167e-4 5.168e-4 c 0.00819,0.00262 0.036833,0.024518 0.066146,0.050643 0.031258,0.027866 0.086188,0.071437 0.1219564,0.096635 0.058387,0.041183 0.1371642,0.1012444 0.379305,0.2909383 0.04173,0.032576 0.1150893,0.088263 0.1627808,0.1235067 0.047687,0.035244 0.107197,0.083924 0.1322917,0.107487 0.023522,0.022089 0.047922,0.040196 0.055811,0.042375 h 5.168e-4 5.167e-4 5.168e-4 l 5.168e-4,5.167e-4 c 0.0097,0.00356 0.049182,0.033197 0.09095,0.06873 0.043171,0.036918 0.083428,0.067383 0.091467,0.069246 h 5.167e-4 5.168e-4 c 0.00776,0.00158 0.042352,0.027556 0.078548,0.058911 0.037373,0.032377 0.097044,0.080222 0.1328084,0.1064535 0.089535,0.065975 0.2169235,0.1642295 0.2583822,0.199471 0.046612,0.039547 0.1832327,0.1439094 0.2563151,0.1953369 0.032789,0.023155 0.081692,0.061187 0.1085205,0.084749 0.024427,0.021516 0.041168,0.030453 0.048576,0.027389 5.585e-4,-3.404e-4 0.00163,-0.00156 0.00207,-0.00207 7.645e-4,-0.00119 0.00126,-0.00278 0.00155,-0.00465 0.00193,-0.012291 0.019914,-0.1025684 0.039791,-0.2005045 C 3.4393258,7.951901 3.4452619,7.9126953 3.4127116,7.9126953 h -5.168e-4 c -0.0071,-0.00163 -0.041318,-0.028308 -0.077515,-0.060461 C 3.2973164,7.8190414 3.2425279,7.7754718 3.2127238,7.755599 3.1436378,7.7095165 3.0371069,7.6300079 2.9471069,7.5576782 2.8821064,7.5054282 2.7825275,7.4298432 2.6329142,7.3189331 2.6001252,7.2945477 2.5218701,7.2350975 2.4592814,7.1861247 2.3966954,7.1371566 2.3278131,7.0847149 2.3063192,7.0703695 c -0.021495,-0.014339 -0.071343,-0.05311 -0.1111044,-0.0863 -0.038519,-0.032154 -0.074422,-0.058832 -0.081132,-0.060461 h -5.167e-4 c -0.00498,0 -0.045796,-0.031334 -0.09095,-0.069246 -0.043756,-0.036918 -0.084991,-0.067396 -0.093018,-0.069246 H 1.9290812 1.9285645 1.9280477 C 1.9190009,6.7821398 1.8852016,6.7572014 1.8500163,6.727238 1.786618,6.6733505 1.7490333,6.6446725 1.5921509,6.5293172 1.5593707,6.5051307 1.4957837,6.4558283 1.4510742,6.4197632 1.3326541,6.3242867 1.2353833,6.2506089 1.1859741,6.2192586 1.1621347,6.2049192 1.1105158,6.1655462 1.0717692,6.1339925 0.99347977,6.0700602 0.89315204,5.9933926 0.79685059,5.9231527 0.70194274,5.8538989 0.63296109,5.7948597 0.62786865,5.7794922 v -5.168e-4 -5.167e-4 -5.168e-4 -5.168e-4 -5.167e-4 c 0.003324,-0.014342 0.0574789,-0.058897 0.16794841,-0.1390096 0.0417298,-0.030324 0.12924651,-0.097088 0.19482015,-0.1483114 0.0655782,-0.05143 0.13674979,-0.105547 0.15812989,-0.1198893 0.021381,-0.014342 0.065197,-0.047887 0.097668,-0.074931 0.032474,-0.027047 0.078668,-0.062568 0.1023194,-0.078548 0.052167,-0.035037 0.2311407,-0.1711537 0.2986898,-0.2273763 0.02698,-0.02254 0.068544,-0.053673 0.091984,-0.069246 0.053348,-0.035652 0.158719,-0.1167295 0.2651001,-0.2036052 0.04357,-0.035529 0.083745,-0.064849 0.09095,-0.066663 h 5.168e-4 5.168e-4 l 5.167e-4,-5.168e-4 c 0.0084,-0.00298 0.042814,-0.027718 0.079582,-0.057878 0.039219,-0.031963 0.1006553,-0.080023 0.1364258,-0.1064534 0.035764,-0.026636 0.1183948,-0.089745 0.1839681,-0.1405599 0.065578,-0.050812 0.1438271,-0.1090048 0.1736328,-0.1286743 0.029806,-0.020489 0.080901,-0.058329 0.1136882,-0.085783 0.089169,-0.074993 0.2427857,-0.1924405 0.2511474,-0.1922363 0.00411,8.2e-5 0.044756,-0.031341 0.089917,-0.069246 0.045168,-0.038109 0.085603,-0.06873 0.089917,-0.06873 h 5.168e-4 l 5.167e-4,-5.168e-4 C 3.2409671,3.7937285 3.4280774,3.6337638 3.4344157,3.6121826 V 3.6116659 3.6111491 3.6106323 C 3.4346614,3.6003865 3.417302,3.5018136 3.3956584,3.3930745 3.3740236,3.2842748 3.3389556,3.1065288 3.317627,2.9977498 3.2963416,2.8892158 3.2779596,2.7983601 3.2768026,2.7946615 H 3.2762858 3.275769 c -2.407e-4,6.29e-5 -7.271e-4,-1.238e-4 -0.00103,0 z"
       fill="currentColor" />
  </g>
</svg>
